<svg id="visual" viewBox="0 0 900 600" width="900" height="600" xmlns="http://www.w3.org/2000/svg" xmlns:xlink="http://www.w3.org/1999/xlink" version="1.1"><g stroke-width="1" stroke-linejoin="bevel"><path d="M470 330L423 385L475 412Z" fill="#d0d7d9" stroke="#d0d7d9"></path><path d="M470 330L376 333L423 385Z" fill="#e1e5e8" stroke="#e1e5e8"></path><path d="M405 483L511 460L475 412Z" fill="#cbd3d6" stroke="#cbd3d6"></path><path d="M475 412L561 304L470 330Z" fill="#d4dadd" stroke="#d4dadd"></path><path d="M511 460L561 304L475 412Z" fill="#c7d0d2" stroke="#c7d0d2"></path><path d="M470 330L413 168L376 333Z" fill="#dce1e4" stroke="#dce1e4"></path><path d="M319 364L405 483L423 385Z" fill="#e9ecef" stroke="#e9ecef"></path><path d="M423 385L405 483L475 412Z" fill="#e9ecef" stroke="#e9ecef"></path><path d="M376 333L319 364L423 385Z" fill="#e5e8eb" stroke="#e5e8eb"></path><path d="M522 600L620 469L511 460Z" fill="#e5e8eb" stroke="#e5e8eb"></path><path d="M511 460L639 437L561 304Z" fill="#c3ccce" stroke="#c3ccce"></path><path d="M620 469L639 437L511 460Z" fill="#e1e5e8" stroke="#e1e5e8"></path><path d="M319 364L306 479L405 483Z" fill="#e1e5e8" stroke="#e1e5e8"></path><path d="M634 185L492 170L561 304Z" fill="#d0d7d9" stroke="#d0d7d9"></path><path d="M561 304L492 170L470 330Z" fill="#e5e8eb" stroke="#e5e8eb"></path><path d="M376 333L263 296L319 364Z" fill="#dce1e4" stroke="#dce1e4"></path><path d="M620 469L663 429L639 437Z" fill="#e9ecef" stroke="#e9ecef"></path><path d="M639 437L660 299L561 304Z" fill="#c3ccce" stroke="#c3ccce"></path><path d="M492 170L413 168L470 330Z" fill="#bfc9ca" stroke="#bfc9ca"></path><path d="M663 429L660 299L639 437Z" fill="#e1e5e8" stroke="#e1e5e8"></path><path d="M279 175L263 296L376 333Z" fill="#c3ccce" stroke="#c3ccce"></path><path d="M319 364L229 334L306 479Z" fill="#dce1e4" stroke="#dce1e4"></path><path d="M377 600L522 600L405 483Z" fill="#e5e8eb" stroke="#e5e8eb"></path><path d="M405 483L522 600L511 460Z" fill="#e9ecef" stroke="#e9ecef"></path><path d="M620 469L705 516L663 429Z" fill="#c7d0d2" stroke="#c7d0d2"></path><path d="M263 296L229 334L319 364Z" fill="#bfc9ca" stroke="#bfc9ca"></path><path d="M306 479L377 600L405 483Z" fill="#c7d0d2" stroke="#c7d0d2"></path><path d="M470 100L409 126L413 168Z" fill="#d4dadd" stroke="#d4dadd"></path><path d="M413 168L279 175L376 333Z" fill="#d0d7d9" stroke="#d0d7d9"></path><path d="M263 296L217 222L229 334Z" fill="#bfc9ca" stroke="#bfc9ca"></path><path d="M660 299L634 185L561 304Z" fill="#d8dee1" stroke="#d8dee1"></path><path d="M492 170L470 100L413 168Z" fill="#e9ecef" stroke="#e9ecef"></path><path d="M333 116L279 175L413 168Z" fill="#d0d7d9" stroke="#d0d7d9"></path><path d="M607 133L470 100L492 170Z" fill="#bfc9ca" stroke="#bfc9ca"></path><path d="M409 126L333 116L413 168Z" fill="#dce1e4" stroke="#dce1e4"></path><path d="M522 600L618 600L620 469Z" fill="#e5e8eb" stroke="#e5e8eb"></path><path d="M634 185L607 133L492 170Z" fill="#e5e8eb" stroke="#e5e8eb"></path><path d="M618 600L705 516L620 469Z" fill="#cbd3d6" stroke="#cbd3d6"></path><path d="M663 429L784 328L660 299Z" fill="#d4dadd" stroke="#d4dadd"></path><path d="M428 0L333 116L409 126Z" fill="#c7d0d2" stroke="#c7d0d2"></path><path d="M238 74L217 222L279 175Z" fill="#cbd3d6" stroke="#cbd3d6"></path><path d="M279 175L217 222L263 296Z" fill="#cbd3d6" stroke="#cbd3d6"></path><path d="M166 370L219 536L306 479Z" fill="#e9ecef" stroke="#e9ecef"></path><path d="M306 479L265 600L377 600Z" fill="#dce1e4" stroke="#dce1e4"></path><path d="M166 370L306 479L229 334Z" fill="#d4dadd" stroke="#d4dadd"></path><path d="M217 222L166 370L229 334Z" fill="#d0d7d9" stroke="#d0d7d9"></path><path d="M219 536L265 600L306 479Z" fill="#cbd3d6" stroke="#cbd3d6"></path><path d="M660 299L700 165L634 185Z" fill="#c7d0d2" stroke="#c7d0d2"></path><path d="M634 185L700 165L607 133Z" fill="#e9ecef" stroke="#e9ecef"></path><path d="M804 221L700 165L660 299Z" fill="#d0d7d9" stroke="#d0d7d9"></path><path d="M618 600L682 600L705 516Z" fill="#d8dee1" stroke="#d8dee1"></path><path d="M798 479L663 429L705 516Z" fill="#d0d7d9" stroke="#d0d7d9"></path><path d="M823 419L784 328L663 429Z" fill="#cbd3d6" stroke="#cbd3d6"></path><path d="M166 370L82 528L219 536Z" fill="#cbd3d6" stroke="#cbd3d6"></path><path d="M67 273L112 377L166 370Z" fill="#d8dee1" stroke="#d8dee1"></path><path d="M774 600L798 479L705 516Z" fill="#e1e5e8" stroke="#e1e5e8"></path><path d="M798 479L823 419L663 429Z" fill="#e1e5e8" stroke="#e1e5e8"></path><path d="M784 328L804 221L660 299Z" fill="#bfc9ca" stroke="#bfc9ca"></path><path d="M900 329L804 221L784 328Z" fill="#d4dadd" stroke="#d4dadd"></path><path d="M285 0L238 74L333 116Z" fill="#c3ccce" stroke="#c3ccce"></path><path d="M333 116L238 74L279 175Z" fill="#dce1e4" stroke="#dce1e4"></path><path d="M217 222L67 273L166 370Z" fill="#e1e5e8" stroke="#e1e5e8"></path><path d="M533 0L428 0L470 100Z" fill="#d8dee1" stroke="#d8dee1"></path><path d="M470 100L428 0L409 126Z" fill="#bfc9ca" stroke="#bfc9ca"></path><path d="M533 0L470 100L607 133Z" fill="#e9ecef" stroke="#e9ecef"></path><path d="M533 0L607 133L573 0Z" fill="#dce1e4" stroke="#dce1e4"></path><path d="M726 91L607 133L700 165Z" fill="#cbd3d6" stroke="#cbd3d6"></path><path d="M82 528L161 600L219 536Z" fill="#e1e5e8" stroke="#e1e5e8"></path><path d="M219 536L161 600L265 600Z" fill="#c3ccce" stroke="#c3ccce"></path><path d="M238 74L135 176L217 222Z" fill="#cbd3d6" stroke="#cbd3d6"></path><path d="M802 107L726 91L700 165Z" fill="#d8dee1" stroke="#d8dee1"></path><path d="M682 600L774 600L705 516Z" fill="#bfc9ca" stroke="#bfc9ca"></path><path d="M900 500L900 367L823 419Z" fill="#d8dee1" stroke="#d8dee1"></path><path d="M680 0L573 0L607 133Z" fill="#e1e5e8" stroke="#e1e5e8"></path><path d="M135 176L67 273L217 222Z" fill="#dce1e4" stroke="#dce1e4"></path><path d="M112 377L82 528L166 370Z" fill="#cbd3d6" stroke="#cbd3d6"></path><path d="M0 404L82 528L112 377Z" fill="#cbd3d6" stroke="#cbd3d6"></path><path d="M428 0L285 0L333 116Z" fill="#e5e8eb" stroke="#e5e8eb"></path><path d="M238 74L110 74L135 176Z" fill="#c3ccce" stroke="#c3ccce"></path><path d="M82 528L104 600L161 600Z" fill="#c3ccce" stroke="#c3ccce"></path><path d="M804 221L802 107L700 165Z" fill="#e9ecef" stroke="#e9ecef"></path><path d="M726 91L680 0L607 133Z" fill="#cbd3d6" stroke="#cbd3d6"></path><path d="M900 177L802 107L804 221Z" fill="#e1e5e8" stroke="#e1e5e8"></path><path d="M833 0L680 0L726 91Z" fill="#e1e5e8" stroke="#e1e5e8"></path><path d="M900 500L823 419L798 479Z" fill="#d4dadd" stroke="#d4dadd"></path><path d="M823 419L900 367L784 328Z" fill="#c7d0d2" stroke="#c7d0d2"></path><path d="M900 367L900 329L784 328Z" fill="#bfc9ca" stroke="#bfc9ca"></path><path d="M774 600L900 500L798 479Z" fill="#c7d0d2" stroke="#c7d0d2"></path><path d="M179 0L110 74L238 74Z" fill="#c3ccce" stroke="#c3ccce"></path><path d="M135 176L0 186L67 273Z" fill="#e1e5e8" stroke="#e1e5e8"></path><path d="M0 326L0 404L112 377Z" fill="#d8dee1" stroke="#d8dee1"></path><path d="M82 528L0 600L104 600Z" fill="#bfc9ca" stroke="#bfc9ca"></path><path d="M0 326L112 377L67 273Z" fill="#d8dee1" stroke="#d8dee1"></path><path d="M0 186L0 326L67 273Z" fill="#d0d7d9" stroke="#d0d7d9"></path><path d="M285 0L179 0L238 74Z" fill="#cbd3d6" stroke="#cbd3d6"></path><path d="M900 329L900 177L804 221Z" fill="#e9ecef" stroke="#e9ecef"></path><path d="M802 107L833 0L726 91Z" fill="#c3ccce" stroke="#c3ccce"></path><path d="M0 404L0 493L82 528Z" fill="#d4dadd" stroke="#d4dadd"></path><path d="M774 600L900 600L900 500Z" fill="#d4dadd" stroke="#d4dadd"></path><path d="M110 74L0 186L135 176Z" fill="#c7d0d2" stroke="#c7d0d2"></path><path d="M0 71L0 186L110 74Z" fill="#e9ecef" stroke="#e9ecef"></path><path d="M900 177L900 109L802 107Z" fill="#e9ecef" stroke="#e9ecef"></path><path d="M0 493L0 600L82 528Z" fill="#d8dee1" stroke="#d8dee1"></path><path d="M179 0L98 0L110 74Z" fill="#d4dadd" stroke="#d4dadd"></path><path d="M900 109L833 0L802 107Z" fill="#e5e8eb" stroke="#e5e8eb"></path><path d="M98 0L0 71L110 74Z" fill="#d4dadd" stroke="#d4dadd"></path><path d="M900 109L900 0L833 0Z" fill="#e9ecef" stroke="#e9ecef"></path><path d="M98 0L0 0L0 71Z" fill="#c7d0d2" stroke="#c7d0d2"></path></g></svg>